# xmcd CD database file
#
# Track frame offsets:
#	150
#	15005
#	32340
#	48235
#	63842
#	79110
#	101007
#	113065
#	125520
#	142257
#	152735
#	170270
#	184615
#	195937
#	206350
#	216259
#	228075
#	240140
#	254962
#	273740
#	285560
#	298615
#	314347
#
# Disc length: 4371 seconds
#
# Revision: 0
# Processed by: cddbd v1.5.2PL0 Copyright (c) Steve Scherf et al.
# Submitted via: CDex 1.70beta2
#
DISCID=3a111117
DTITLE=ChartBreakers - ChartBreakers CGC-545
DYEAR=1900
DGENRE=Country
TTITLE0=Kenny Rogers - Daytime Friends
TTITLE1=Kenny Rogers - Twenty Years Ago
TTITLE2=Dolly Parton and Ricky Van Shelton - Rockin' Years
TTITLE3=David Frizzell and Shelly West - You're The Reason God Made Oklahoma
TTITLE4=John Conlee - Friday Night Blues
TTITLE5=Willie Nelson - City Of New Orleans
TTITLE6=Sammi Smith - Help Me Make It Through The Night
TTITLE7=Tammy Wynette - Stand By Your Man
TTITLE8=Ronnie Milsap - It Was Almost Like A Song
TTITLE9=Charley Pride - Is Anybody Goin' To San Antone
TTITLE10=Ray Price - For The Good Times
TTITLE11=Dolly Parton - Coat Of Many Colors
TTITLE12=Roger Miller - King Of The Road
TTITLE13=George Hamilton IV - Abilene
TTITLE14=George Jones - The Race Is On
TTITLE15=Don Gibson - Oh Lonesome Me
TTITLE16=John Conlee - Backside Of Thirty
TTITLE17=Gary Morris - Headed For A Heartache
TTITLE18=Juice Newton - The Sweetest Thing (I've Ever Known)
TTITLE19=Sweethearts Of The Rodeo - I Feel Fine
TTITLE20=Vern Gosdin - Who You Gonna Blame It On This Time
TTITLE21=Dwight Yoakam - Turn It On, Turn It Up, Turn Me Loose
TTITLE22=Vern Gosdin - Is It Raining At Your House
EXTD=YEAR: 1900
EXTT0=
EXTT1=
EXTT2=
EXTT3=
EXTT4=
EXTT5=
EXTT6=
EXTT7=
EXTT8=
EXTT9=
EXTT10=
EXTT11=
EXTT12=
EXTT13=
EXTT14=
EXTT15=
EXTT16=
EXTT17=
EXTT18=
EXTT19=
EXTT20=
EXTT21=
EXTT22=
PLAYORDER=
